<svg xmlns="http://www.w3.org/2000/svg" viewBox="0 0 100 125" x="0px" y="0px"><g data-name="14-Tracking"><path d="M29.56,74.77H16.91a2,2,0,1,0,0,4H29.56a2,2,0,1,0,0-4Z"/><path d="M16.91,80.51a2,2,0,1,0,0,4h7.9a2,2,0,1,0,0-4Z"/><circle cx="29.55" cy="82.51" r="2"/><path d="M75,5A20,20,0,1,0,95,25,20,20,0,0,0,75,5Zm0,36A16,16,0,1,1,91,25,16,16,0,0,1,75,41Z"/><path d="M85,44a2,2,0,0,0-2,2V84l-6,4.8V48a2,2,0,0,0-4,0V91H9V27H31.09V53.47a2,2,0,0,0,3,1.71L41,51.05l6.88,4.13a2,2,0,0,0,2,0,2,2,0,0,0,1-1.74V27h.8a2,2,0,1,0,0-4H11.16L16,17H54a2,2,0,0,0,0-4H15a2,2,0,0,0-1.56.75l-8,10a.16.16,0,0,0,0,.07.81.81,0,0,0-.12.18l-.09.16a1.34,1.34,0,0,0-.07.18l-.06.19,0,.18a1.49,1.49,0,0,0,0,.21S5,25,5,25V93a2,2,0,0,0,2,2H75a1.55,1.55,0,0,0,.37,0l.12,0,.23-.07.13-.06.2-.1.13-.09.07,0,10-8A2,2,0,0,0,87,85V46A2,2,0,0,0,85,44ZM35.09,27H46.91V49.93L42,47A2,2,0,0,0,40,47l-4.88,2.92Z"/><path d="M74.89,12.66a9.15,9.15,0,0,0-9.14,9.14,9.06,9.06,0,0,0,1.74,5.36l0,0,6.11,9.61a1.52,1.52,0,0,0,1.27.69,1.49,1.49,0,0,0,1.26-.69l6.12-9.61,0,0A9.06,9.06,0,0,0,84,21.8,9.15,9.15,0,0,0,74.89,12.66Zm4.9,12.83a1.59,1.59,0,0,0-.13.22l-4.77,7.5-4.77-7.5a1,1,0,0,0-.14-.22,6.15,6.15,0,1,1,9.81,0Z"/><path d="M74.89,17a4.78,4.78,0,1,0,4.77,4.77A4.78,4.78,0,0,0,74.89,17Zm0,6.55a1.78,1.78,0,1,1,1.77-1.78A1.78,1.78,0,0,1,74.89,23.58Z"/></g><text x="0" y="115" fill="#000000" font-size="5px" font-weight="bold" font-family="'Helvetica Neue', Helvetica, Arial-Unicode, Arial, Sans-serif">Created by DailyPM</text><text x="0" y="120" fill="#000000" font-size="5px" font-weight="bold" font-family="'Helvetica Neue', Helvetica, Arial-Unicode, Arial, Sans-serif">from the Noun Project</text></svg>