<svg xmlns="http://www.w3.org/2000/svg" viewBox="0 0 64 80" x="0px" y="0px"><title>tracking-map-route-pointers-mapping</title><g><path d="M21.405,13.027a5.379,5.379,0,1,0-5.378,5.378A5.384,5.384,0,0,0,21.405,13.027Zm-8.757,0a3.379,3.379,0,1,1,3.379,3.378A3.383,3.383,0,0,1,12.648,13.027Z"/><path d="M16.027,33a1,1,0,0,0,.906-.575c1.905-4.06,8.121-17.456,8.121-19.4A9.027,9.027,0,0,0,7,13.027c0,1.942,6.217,15.338,8.122,19.4A1,1,0,0,0,16.027,33Zm0-27a7.036,7.036,0,0,1,7.027,7.019c-.082,1.128-3.493,9-7.027,16.616C12.489,22.008,9.073,14.129,9,13.027A7.035,7.035,0,0,1,16.027,6Z"/><path d="M2,39a4,4,0,1,0,4-4A4,4,0,0,0,2,39Zm6,0a2,2,0,1,1-2-2A2,2,0,0,1,8,39Z"/><circle cx="16" cy="39" r="2"/><path d="M26,43a4,4,0,1,0-4-4A4,4,0,0,0,26,43Zm0-6a2,2,0,1,1-2,2A2,2,0,0,1,26,37Z"/><path d="M40,39a4,4,0,1,0-4,4A4,4,0,0,0,40,39Zm-6,0a2,2,0,1,1,2,2A2,2,0,0,1,34,39Z"/><path d="M61,27H43a1,1,0,0,0-1,1V48a1,1,0,0,0,1,1H61a1,1,0,0,0,1-1V28A1,1,0,0,0,61,27Zm-7,2v4H50V29Zm6,18H44V29h4v5a1,1,0,0,0,1,1h6a1,1,0,0,0,1-1V29h4Z"/><path d="M55,43a1,1,0,0,0,0,2h2a1,1,0,0,0,0-2Z"/><path d="M16,58h6a1,1,0,0,0,0-2H17V47a1,1,0,0,0-2,0V57A1,1,0,0,0,16,58Z"/><rect x="26" y="49" width="2" height="2"/><rect x="30" y="49" width="6" height="2"/><rect x="26" y="53" width="10" height="2"/><rect x="26" y="57" width="2" height="2"/><rect x="30" y="57" width="6" height="2"/><path d="M43,15a1,1,0,0,0-1-1H36a1,1,0,0,0-1,1V32a1,1,0,0,0,2,0V16h5A1,1,0,0,0,43,15Z"/><rect x="46" y="21" width="2" height="2"/><rect x="50" y="21" width="6" height="2"/><rect x="46" y="17" width="10" height="2"/><rect x="46" y="13" width="2" height="2"/><rect x="50" y="13" width="6" height="2"/></g><text x="0" y="79" fill="#000000" font-size="5px" font-weight="bold" font-family="'Helvetica Neue', Helvetica, Arial-Unicode, Arial, Sans-serif">Created by Smalllike</text><text x="0" y="84" fill="#000000" font-size="5px" font-weight="bold" font-family="'Helvetica Neue', Helvetica, Arial-Unicode, Arial, Sans-serif">from the Noun Project</text></svg>